<svg t="1618889719364" class="icon" viewBox="0 0 1024 1024" version="1.1" xmlns="http://www.w3.org/2000/svg" p-id="26147" width="200" height="200"><path d="M960 448c-38.4 0-64-25.6-64-64L896 345.6 620.8 620.8l0 0C608 633.6 595.2 640 576 640c-19.2 0-32-6.4-44.8-19.2l0 0L448 537.6l-147.2 147.2 0 0C288 697.6 275.2 704 256 704c-38.4 0-64-25.6-64-64 0-19.2 6.4-32 19.2-44.8l0 0 192-192 0 0C416 390.4 428.8 384 448 384c19.2 0 32 6.4 44.8 19.2l0 0L576 486.4 806.4 256 768 256c-38.4 0-64-25.6-64-64 0-38.4 25.6-64 64-64l192 0c38.4 0 64 25.6 64 64l0 192C1024 422.4 998.4 448 960 448zM960 768c38.4 0 64 25.6 64 64 0 38.4-25.6 64-64 64L64 896c-38.4 0-64-25.6-64-64L0 192c0-38.4 25.6-64 64-64 38.4 0 64 25.6 64 64l0 576L960 768z" p-id="26148"></path></svg>
