<svg t="1618888385498" class="icon" viewBox="0 0 1024 1024" version="1.1" xmlns="http://www.w3.org/2000/svg" p-id="7090" width="200" height="200"><path d="M511.99772445 229.54211555c-220.7744 0-396.09116445 175.32017778-396.09116445 396.0888889C115.90542222 846.40426667 291.22332445 1021.72444445 511.99772445 1021.72444445s396.08775111-175.32017778 396.0877511-396.09457778c0-220.76871111-175.31335111-396.08888889-396.0877511-396.08888889z m201.29336888 357.13251556l-77.92412444 77.91729778 19.49013333 110.3872c6.48988445 38.96092445-12.99000889 51.95093333-45.45422222 32.46307556l-97.40515555-51.94410667-97.39719112 51.94410667c-32.47217778 19.48785778-51.94410667 0-45.45422222-32.46307556l19.47420444-110.3872-77.90819555-77.91729778c-25.98115555-25.97205333-19.49013333-51.95093333 19.47306667-58.44195556l103.88935111-12.98318222 45.45194667-97.39719111c12.99683555-32.47217778 38.96888889-32.47217778 58.44309333 0l45.45422222 97.39719111 110.3872 12.98318222c38.96092445 12.98887111 51.95093333 32.46990222 19.47989333 58.44195556zM908.08547555 47.72977778c6.49898667-6.48988445 6.49898667-12.98773333 6.49898667-12.98773333 0-12.98432-12.99000889-25.96522667-25.97205333-25.96522667H641.86595555c-12.98887111 0-25.97205333 6.49102222-25.97205333 19.47306667l-77.92412444 142.85141333s162.33927111 6.49671111 259.73646222 103.89504l110.37923555-227.26656zM486.02567111 171.10016L408.10951111 21.75658667c0-12.98204445-12.99000889-19.48103111-25.98001778-19.48103112H141.88088889c-19.48216889 0-32.46648889 12.99000889-32.46648889 25.97205334 0 6.49216 0 12.99000889 6.49102222 12.99000889l110.39061333 227.26428444c97.39719111-84.41400889 259.72849778-97.40174222 259.72849778-97.40174222z" p-id="7091"></path></svg>
