<svg t="1615872642311" class="icon" viewBox="0 0 1024 1024" version="1.1" xmlns="http://www.w3.org/2000/svg" p-id="6642" width="200" height="200"><path d="M855.043 167.773v-72.76c0-33.933-27.462-62.027-62.027-62.027h-544.04c-33.933 0-62.027 27.463-62.027 62.028v70.076C95.41 180.242 24.86 260.42 24.86 356.38c0 105.588 85.07 191.763 190.184 193.973 51.768 118.056 169.194 200.444 306.032 200.444 137.312 0 254.895-83.019 306.506-200.918 99.117-8.05 177.716-92.172 177.716-193.341 0.158-91.857-64.552-168.878-150.254-188.765zM111.191 356.222c0-48.454 32.355-89.49 75.916-102.905v168.562c0 12.942 1.105 25.253 2.683 37.721-45.297-11.837-78.599-53.82-78.599-103.378z m569.292-1.578l-62.5 64.71 14.52 91.068c4.893 31.25-11.837 43.087-38.195 28.567l-77.02-45.77-77.022 43.087c-26.357 14.52-43.087 2.21-38.194-28.567l14.52-91.068-62.5-64.71c-21.623-21.623-14.521-43.088 14.52-47.98l86.175-11.838 38.195-79.23c11.837-28.568 33.46-28.568 47.98 0l38.195 81.282 86.175 11.837c29.83 5.524 36.774 26.989 15.151 48.612zM852.991 455.97c1.105-11.363 2.21-22.096 2.21-33.46v-164.3c37.721 16.73 64.079 54.45 64.079 98.643 0 44.035-27.462 82.86-66.289 99.117zM676.853 993.065H353.618c-23.675 0-43.088-19.413-43.088-43.087s19.413-43.088 43.088-43.088h323.235c23.675 0 43.088 19.413 43.088 43.088s-19.413 43.087-43.088 43.087z m0 0" p-id="6643"></path><path d="M472.148 737.065h86.175v193.973h-86.175z" p-id="6644"></path></svg>
