<svg t="1618404748901" class="icon" viewBox="0 0 1024 1024" version="1.1" xmlns="http://www.w3.org/2000/svg" p-id="1303" width="200" height="200"><path d="M215.08 806l60.84-106.43c2.7-4.58 4.19-9.97 4.19-15.36v-287.9c0-104.58 98.64-221.53 230.75-221.53s230.87 116.94 230.87 221.53v287.9c0 5.39 1.44 10.78 4.07 15.36L806.7 806H215.08z m295.78 122.43c-39.64 0-72.75-25.3-85.64-60.44H596.5c-12.89 35.14-45.94 60.44-85.64 60.44m0-833.96c11.23 0 20.31 8.48 26.14 21.13-8.65-0.86-17.06-2.88-26.14-2.88-9.08 0-17.49 2.01-26.16 2.88 5.85-12.65 14.91-21.13 26.16-21.13m372.75 720.42l-79.4-138.79V396.32c0-107.2-81.08-223.23-199.32-265.72-5.75-56.82-43.95-98.23-94.02-98.23-49.99 0-88.34 41.42-94.04 98.23C298.69 173.1 217.6 289.13 217.6 396.32V676.1l-83.26 145.57c-5.56 9.63-5.41 21.41 0.12 30.97 5.56 9.56 15.86 15.36 26.97 15.36H359.6c14.54 69.87 76.82 122.5 151.27 122.5 74.52 0 136.78-52.63 151.27-122.5h199.58c17.27 0 31.24-13.8 31.24-30.95 0-8.73-3.53-16.58-9.35-22.16" p-id="1304"></path></svg>
