<svg t="1615872768954" class="icon" viewBox="0 0 1024 1024" version="1.1" xmlns="http://www.w3.org/2000/svg" p-id="8786" width="200" height="200"><path d="M881.627409 367.4273l-33.152051 0c0.353041-2.012843 0.470721-4.104481 0.314155-6.245238-2.741437-37.419238-11.31572-73.77526-25.590841-108.396779-17.012466-41.262776-41.362037-78.314647-72.371284-110.125143-31.008224-31.810496-67.125817-56.789401-107.348913-74.241888-41.659819-18.076704-85.895299-27.241434-131.478474-27.241434-45.583175 0-89.818655 9.165754-131.479497 27.241434-40.223097 17.452487-76.340689 42.431392-107.348913 74.241888-31.009248 31.810496-55.357795 68.862367-72.371284 110.125143-14.275121 34.621519-22.848381 70.977541-25.590841 108.396779-0.156566 2.140757-0.038886 4.232394 0.314155 6.245238l-49.682539 0c-50.327222 0-91.27175 40.944528-91.27175 91.27175l0 431.924243c0 50.328245 40.944528 91.27175 91.27175 91.27175l755.785306 0c50.327222 0 91.270726-40.944528 91.270726-91.27175L972.897112 458.69905C972.898135 408.371828 931.953607 367.4273 881.627409 367.4273zM237.227959 364.884384c5.167696-66.944691 33.06507-129.168872 79.859839-177.173189 52.062749-53.40942 121.284297-82.82231 194.912202-82.82231s142.848429 29.413913 194.911178 82.82231c46.793746 48.004317 74.692143 110.227474 79.859839 177.173189 0.066515 0.861624 0.178055 1.708921 0.327458 2.542916L236.901525 367.4273C237.049904 366.593306 237.161445 365.746008 237.227959 364.884384zM906.383232 890.623293c0 13.650905-11.105942 24.756847-24.755824 24.756847L125.842103 915.38014c-13.650905 0-24.756847-11.106965-24.756847-24.756847L101.085256 458.69905c0-13.650905 11.105942-24.756847 24.756847-24.756847l755.785306 0c13.650905 0 24.755824 11.105942 24.755824 24.756847L906.383232 890.623293z" p-id="8787"></path><path d="M507.520989 537.665543c-28.492938 2.116197-51.582819 24.984021-53.946656 53.457516-1.706875 20.553105 7.198959 39.111786 21.832238 50.811246 10.066263 8.049327 15.652492 20.453844 15.652492 33.342386L491.059062 789.299607c0 10.666944 7.378038 20.208251 17.86795 22.143323 13.882172 2.561335 26.107611-8.16496 26.107611-21.60711L535.034623 673.529907c0-12.583596 5.417383-24.604374 14.992459-32.769334 12.610202-10.752902 20.60734-26.755364 20.60734-44.626383C570.634422 562.269917 541.92659 535.110347 507.520989 537.665543z" p-id="8788"></path></svg>
