<svg t="1615872841159" class="icon" viewBox="0 0 1024 1024" version="1.1" xmlns="http://www.w3.org/2000/svg" p-id="11799" width="200" height="200"><path d="M83.0326 591.006402C46.795281 681.254845 40.803823 767.30978 69.986469 783.299963c20.189831 11.097756 51.621704-14.286378 81.211627-60.464093 11.740392 50.572816 40.670282 95.946212 82.050738 132.62867-43.322691 16.888645-71.714322 44.473911-71.714322 75.661214 0 51.370994 76.660984 92.850711 171.211407 92.850711 85.300758 0 155.967214-33.683147 169.010275-78.06189l20.288069 0c13.294794 44.378743 83.804684 78.06189 169.207773 78.06189 94.65787 0 171.210383-41.479717 171.210383-92.850711 0-31.187303-28.333302-58.569954-71.761394-75.661214 41.227983-36.684504 70.360488-82.056877 82.006735-132.62867 29.583782 46.177716 60.865229 71.561849 81.157391 60.464093 29.332049-15.990183 23.483854-102.045117-13.091156-192.293561-28.587082-70.662363-67.316152-122.837676-96.851838-134.527926 0.402159-4.300956 0.74906-9.048073 0.74906-13.594623 0-27.38879-7.29515-52.67264-19.732413-73.264631 0.243547-1.647523 0.243547-3.194762 0.243547-4.841262 0-12.643971-2.845815-24.390503-7.744381-34.538631C809.9883 146.289808 696.198697 0.022513 511.954463 0.022513c-184.209442 0-298.147424 146.272411-305.593 330.222957-4.793166 10.293437-7.746428 22.089088-7.746428 34.68394 0 1.6465 0 3.193739 0.199545 4.846378-12.190647 20.436448-19.484773 45.720298-19.484773 73.210395 0 4.594645 0.243547 9.196453 0.545422 13.694907C150.443919 468.26901 111.565447 520.344039 83.0326 591.006402L83.0326 591.006402z" p-id="11800"></path></svg>
