<svg class="icon" viewBox="0 0 1024 1024" version="1.1" xmlns="http://www.w3.org/2000/svg" p-id="11312" width="200" height="200"><path d="M141.49 177.605l4.354-4.682c5.406-5.838 13.383-14.498 16.474-17.8l2.146-2.278 1.76-1.852c13.106-13.731 24.117-23.986 35.963-32.92 17.45-13.16 35.175-22.004 54.223-25.768 45.963-9.084 90.308 12.893 132.472 65.6 47.448 59.308 65.276 104.93 55.636 147.22-3.372 14.798-11.32 29.76-23.439 45.67l-1.106 1.45a68.267 68.267 0 0 0-7.864 68.657c22.183 50.123 50.449 92.246 84.79 126.587 34.39 34.39 76.582 62.685 126.795 84.883 22.482 9.938 48.55 7.017 68.33-7.652l1.402-1.056c19.96-14.981 39.04-23.891 58.053-25.785 39.046-3.89 81.23 14.606 135.005 57.627 52.745 42.195 74.715 86.065 65.583 131.689-3.776 18.869-12.6 36.385-25.776 53.815l-1.026 1.347c-9.283 12.09-19.8 23.226-35.26 38.134l-1.465 1.41-12.111 11.58a683.402 683.402 0 0 0-7.77 7.552l-1.763 1.755-0.302 0.288c-41.907 39.912-122.04 38.902-215.92 3.41-97.553-36.88-204.36-108.55-304.291-208.48-99.772-99.772-171.52-207.16-208.497-305.371-35.454-94.162-36.583-174.304 3.605-215.03z" p-id="11313"></path></svg>
