<svg t="1618889407473" class="icon" viewBox="0 0 1024 1024" version="1.1" xmlns="http://www.w3.org/2000/svg" p-id="25188" width="200" height="200"><path d="M857.324398 118.145817c-12.519128-7.658424-28.230971-8.176217-41.305755-1.445932-33.364899 17.190521-66.183352 31.417547-129.548518 31.417547-69.700455 0-102.546537-17.226337-140.578736-37.148062-41.915645-21.957081-89.373517-46.824445-179.889043-46.824445-62.622246 0-104.47547 11.924587-138.285506 26.491351-6.203282-15.494902-21.332864-26.491351-39.130206-26.491351-23.286356 0-42.182728 18.797112-42.182728 41.986253l0 811.736619c0 23.189142 18.896372 41.98523 42.182728 41.98523 23.287379 0 42.182728-18.796088 42.182728-41.98523L230.769362 574.302975c35.837206-18.691711 68.879764-34.310434 135.232984-34.310434 69.673849 0 102.546537 17.22429 140.553153 37.149085 41.913599 21.938662 89.373517 46.823422 179.913603 46.823422 82.20628 0 128.23664-20.136619 168.32773-40.788985 14.004969-7.212262 22.796192-21.584598 22.796192-37.292348L877.593024 154.008606C877.594047 139.352815 869.901855 125.769448 857.324398 118.145817zM793.221428 519.604188c-26.883277 11.856026-57.613162 20.388353-106.751303 20.388353-69.700455 0-102.546537-17.22736-140.578736-37.150108-41.915645-21.937638-89.373517-46.823422-179.889043-46.823422-60.694337 0-101.94995 11.174504-135.232984 25.152866L230.769362 182.428889c35.837206-18.690688 68.879764-34.310434 135.232984-34.310434 69.673849 0 102.546537 17.22736 140.553153 37.149085 41.913599 21.938662 89.373517 46.824445 179.913603 46.824445 44.627407 0 78.599126-5.945409 106.751303-14.674211L793.220405 519.604188z" p-id="25189"></path></svg>
